<?xml version="1.0" encoding="UTF-8" standalone="no"?>
<svg width="100px" height="100px" viewBox="0 0 100 100" version="1.1" xmlns="http://www.w3.org/2000/svg" xmlns:xlink="http://www.w3.org/1999/xlink" xmlns:sketch="http://www.bohemiancoding.com/sketch/ns">
    <!-- Generator: Sketch 3.4 (15575) - http://www.bohemiancoding.com/sketch -->
    <title>Icon 2</title>
    <desc>Created with Sketch.</desc>
    <defs>
        <path id="path-1" d="M0,0.261 L46,0.261 L46,38 L0,38"></path>
    </defs>
    <g id="Page-1" stroke="none" stroke-width="1" fill="none" fill-rule="evenodd" sketch:type="MSPage">
        <g id="Home-Page" sketch:type="MSArtboardGroup" transform="translate(-669.000000, -1006.000000)">
            <g id="Featured-Icons" sketch:type="MSLayerGroup" transform="translate(-23.000000, 948.000000)">
                <g id="Icon-2" transform="translate(692.000000, 58.000000)">
                    <g id="Page-1" transform="translate(27.000000, 30.000000)">
                        <path d="M12.4789,37 L12.4789,37 C10.2119,37 8.3739,35.162 8.3739,32.895 L8.3739,5.366 C8.3739,3.099 10.2119,1.261 12.4789,1.261 C14.7459,1.261 16.5839,3.099 16.5839,5.366 L16.5839,32.895 C16.5839,35.162 14.7459,37 12.4789,37 L12.4789,37 Z" id="Stroke-1" stroke="#F5861E" stroke-width="2" sketch:type="MSShapeGroup"></path>
                        <g id="Group-5">
                            <mask id="mask-2" sketch:name="Clip 4" fill="white">
                                <use xlink:href="#path-1"></use>
                            </mask>
                            <g id="Clip-4"></g>
                            <path d="M8.3739,19.1308 L-0.0001,19.1308" id="Stroke-3" stroke="#F5861E" stroke-width="2" sketch:type="MSShapeGroup" mask="url(#mask-2)"></path>
                        </g>
                        <path d="M16.584,19.1304 L29.416,19.1304" id="Stroke-6" stroke="#F5861E" stroke-width="2" sketch:type="MSShapeGroup"></path>
                        <path d="M4.6178,10.0238 L4.6178,28.2368" id="Stroke-8" stroke="#F5861E" stroke-width="2" sketch:type="MSShapeGroup"></path>
                        <path d="M33.5208,1.2607 L33.5208,1.2607 C35.7878,1.2607 37.6258,3.0987 37.6258,5.3657 L37.6258,32.8947 C37.6258,35.1617 35.7878,36.9997 33.5208,36.9997 L33.5208,36.9997 C31.2538,36.9997 29.4158,35.1617 29.4158,32.8947 L29.4158,5.3657 C29.4158,3.0987 31.2538,1.2607 33.5208,1.2607 L33.5208,1.2607 Z" id="Stroke-10" stroke="#F5861E" stroke-width="2" sketch:type="MSShapeGroup"></path>
                        <path d="M37.6258,19.1299 L45.9998,19.1299" id="Stroke-12" stroke="#F5861E" stroke-width="2" sketch:type="MSShapeGroup"></path>
                        <path d="M41.3819,28.2369 L41.3819,10.0239" id="Stroke-14" stroke="#F5861E" stroke-width="2" sketch:type="MSShapeGroup"></path>
                    </g>
                    <path d="M50,0 C22.386,0 0,22.385 0,49.999 L0,50 C0,77.614 22.386,100 50,100 C77.614,100 100,77.614 100,50 L100,49.999 C100,22.385 77.614,0 50,0 Z M97,50 C97,75.916 75.916,97 50,97 C24.084,97 3,75.915 3,49.999 C3,24.084 24.084,3 50,3 C75.916,3 97,24.084 97,50 Z" id="Icon-100x100" fill="#F5861E" sketch:type="MSShapeGroup"></path>
                </g>
            </g>
        </g>
    </g>
</svg>