<?xml version="1.0" encoding="UTF-8" standalone="no"?>
<svg width="100px" height="100px" viewBox="0 0 100 100" version="1.1" xmlns="http://www.w3.org/2000/svg" xmlns:xlink="http://www.w3.org/1999/xlink" xmlns:sketch="http://www.bohemiancoding.com/sketch/ns">
    <!-- Generator: Sketch 3.4 (15575) - http://www.bohemiancoding.com/sketch -->
    <title>Icon 3</title>
    <desc>Created with Sketch.</desc>
    <defs></defs>
    <g id="Page-1" stroke="none" stroke-width="1" fill="none" fill-rule="evenodd" sketch:type="MSPage">
        <g id="Home-Page" sketch:type="MSArtboardGroup" transform="translate(-988.000000, -1006.000000)">
            <g id="Featured-Icons" sketch:type="MSLayerGroup" transform="translate(-23.000000, 948.000000)">
                <g id="Icon-3" transform="translate(1011.000000, 58.000000)" sketch:type="MSShapeGroup">
                    <path d="M50,0 C22.386,0 0,22.385 0,49.999 L0,50 C0,77.614 22.386,100 50,100 C77.614,100 100,77.614 100,50 L100,49.999 C100,22.385 77.614,0 50,0 Z M97,50 C97,75.916 75.916,97 50,97 C24.084,97 3,75.915 3,49.999 C3,24.084 24.084,3 50,3 C75.916,3 97,24.084 97,50 Z" id="Icon-100x100" fill="#F5861E"></path>
                    <g id="Page-1" transform="translate(23.000000, 28.000000)" stroke="#F5861E" stroke-width="2" stroke-linecap="round" stroke-linejoin="round">
                        <path d="M50.8153846,13.5215769 C50.8153846,13.5215769 48.1257692,10.7754231 44.9907692,11.1042692 C41.8926923,11.4285 43.4376923,11.9235 40.1526923,11.9350385 C36.8676923,11.9235 38.4138462,11.4285 35.3157692,11.1042692 C32.1807692,10.7754231 29.4911538,13.5215769 29.4911538,13.5215769 C23.1461538,21.0250385 31.8853846,30.8558077 34.6396154,32.7573462 C37.0753846,34.4408077 39.6023077,33.1485 40.1526923,32.8265769 C40.7042308,33.1485 43.2311538,34.4408077 45.6669231,32.7573462 C48.4211538,30.8558077 57.1603846,21.0250385 50.8153846,13.5215769" id="Stroke-1"></path>
                        <path d="M36.4249615,0.469846154 C36.4249615,0.469846154 41.1095769,4.81523077 40.1218846,11.5502308" id="Stroke-3"></path>
                        <path d="M43.0134231,6.78438462 C43.0134231,6.78438462 42.6072692,0.487846154 53.0772692,2.16669231 C53.0772692,2.16669231 50.5780385,10.2828462 43.0134231,6.78438462 L43.0134231,6.78438462 Z" id="Stroke-5"></path>
                        <path d="M5.30492308,24.8786538 C4.86530769,27.1355769 6.34107692,29.3198077 8.59684615,29.7571154 C10.8537692,30.1944231 13.0368462,28.7209615 13.4764615,26.4651923 C13.9137692,24.2082692 12.4391538,22.0240385 10.1845385,21.5855769 C7.92530769,21.1471154 5.74223077,22.6205769 5.30492308,24.8786538 L5.30492308,24.8786538 Z" id="Stroke-7"></path>
                        <path d="M14.8669615,17.3865 C14.4273462,19.6434231 15.9008077,21.8288077 18.1588846,22.2649615 C20.4158077,22.7022692 22.5988846,21.2288077 23.0385,18.9730385 C23.4758077,16.7149615 22.0000385,14.5295769 19.7465769,14.0934231 C17.4873462,13.6549615 15.3031154,15.1284231 14.8669615,17.3865 L14.8669615,17.3865 Z" id="Stroke-9"></path>
                        <path d="M16.0782692,29.6134615 C15.6398077,31.8703846 17.1144231,34.0534615 19.3713462,34.4919231 C21.6271154,34.9292308 23.8113462,33.4546154 24.2509615,31.1988462 C24.6894231,28.9407692 23.2148077,26.7565385 20.9578846,26.3203846 C18.7009615,25.8807692 16.5144231,27.3553846 16.0782692,29.6134615 L16.0782692,29.6134615 Z" id="Stroke-11"></path>
                        <path d="M11.1632308,13.1295 C11.2878462,13.2495 16.2886154,11.1391154 15.4913077,8.01219231 C14.7447692,5.08142308 14.9882308,2.18526923 14.9882308,2.18526923 C4.31861538,7.92680769 11.1632308,13.1295 11.1632308,13.1295 L11.1632308,13.1295 Z" id="Stroke-13"></path>
                        <path d="M0,13.7942308 C0,13.7942308 5.49692308,10.9776923 10.2807692,16.9811538" id="Stroke-15"></path>
                        <path d="M49.3832308,28.9103077 C52.2447692,30.5568462 53.9155385,32.5414615 53.9155385,34.6795385 C53.9155385,40.3783846 42.0343846,44.9995385 27.3770769,44.9995385 C12.7197692,44.9995385 0.838615385,40.3783846 0.838615385,34.6795385 C0.838615385,32.4422308 2.67092308,30.3710769 5.78284615,28.6795385" id="Stroke-17"></path>
                    </g>
                </g>
            </g>
        </g>
    </g>
</svg>