<?xml version="1.0" encoding="UTF-8" standalone="no"?>
<svg width="1099px" height="810px" viewBox="0 0 1099 810" version="1.1" xmlns="http://www.w3.org/2000/svg" xmlns:xlink="http://www.w3.org/1999/xlink" xmlns:sketch="http://www.bohemiancoding.com/sketch/ns">
    <!-- Generator: Sketch 3.4 (15575) - http://www.bohemiancoding.com/sketch -->
    <title>mainIllustration</title>
    <desc>Created with Sketch.</desc>
    <defs>
        <path id="path-1" d="M0,0.304574163 L371.900195,0.304574163 L371.900195,438 L0,438"></path>
        <path id="path-3" d="M0,0.304574163 L371.900195,0.304574163 L371.900195,438 L0,438"></path>
        <path id="path-5" d="M0,0.165549367 L154.731039,0.165549367 L154.731039,134 L0,134"></path>
        <path id="path-7" d="M0,0.165549367 L154.731039,0.165549367 L154.731039,134 L0,134"></path>
        <path id="path-9" d="M0,0.249456686 L320.750543,0.249456686 L320.750543,321 L0,321"></path>
        <path id="path-11" d="M0,0.162913992 L163.978089,0.162913992 L163.978089,259 L0,259 L0,0.162913992 Z"></path>
    </defs>
    <g id="Page-1" stroke="none" stroke-width="1" fill="none" fill-rule="evenodd" sketch:type="MSPage">
        <g id="Home-Page" sketch:type="MSArtboardGroup" transform="translate(-137.000000, -135.000000)">
            <g id="Header" sketch:type="MSLayerGroup" transform="translate(-38.000000, -61.000000)">
                <g id="mainIllustration" transform="translate(175.000000, 196.000000)">
                    <g id="Page-1" transform="translate(0.000000, 162.000000)">
                        <g id="Group-3">
                            <mask id="mask-2" sketch:name="Clip 2" fill="white">
                                <use xlink:href="#path-1"></use>
                            </mask>
                            <g id="Clip-2"></g>
                            <path d="M317.317745,120.158873 C390.001171,192.77606 390.107955,310.619366 317.555392,383.368581 C245.003876,456.117447 127.266225,456.223978 54.5824503,383.606792 C-18.1009756,310.988907 -18.2077598,193.14595 54.344454,120.397084 C126.897017,47.6475191 244.633621,47.540988 317.317745,120.158873" id="Fill-1" fill="#E2D9D3" sketch:type="MSShapeGroup" mask="url(#mask-2)"></path>
                        </g>
                        <path d="M297.369158,140.161083 C359.01542,201.751427 359.106501,301.699954 297.57121,363.402068 C236.035919,425.103834 136.1773,425.194647 74.5310375,363.604303 C12.8844259,302.013958 12.7936942,202.065432 74.328985,140.363667 C135.864625,78.6608531 235.722546,78.5707383 297.369158,140.161083" id="Fill-4" fill="#938882" sketch:type="MSShapeGroup"></path>
                        <path d="M284.96205,152.383902 C339.804133,207.175816 339.885093,296.091912 285.141769,350.984419 C230.398444,405.875878 141.561983,405.955864 86.7199002,351.163252 C31.8778176,296.371687 31.797206,207.454893 86.5405306,152.563433 C141.283506,97.6716249 230.119968,97.59129 284.96205,152.383902" id="Fill-6" fill="#E2D8D3" sketch:type="MSShapeGroup"></path>
                        <path d="M258.93922,186.770814 C297.091205,224.887642 297.147039,286.74379 259.06415,324.930475 C220.981261,363.11646 159.180754,363.171996 121.029118,325.055518 C82.8774822,286.937642 82.8206004,225.081843 120.904188,186.895508 C158.987077,148.709173 220.787235,148.653637 258.93922,186.770814" id="Fill-8" fill="#E2D8D3" sketch:type="MSShapeGroup"></path>
                        <path d="M202.467386,244.297329 C199.59817,234.384348 193.540782,225.627492 184.526238,219.816133 C163.380516,206.174564 134.146759,213.885669 119.233259,237.048324 C110.109138,251.231631 108.498302,267.898334 113.458185,281.829109 C103.016013,299.779774 106.516861,321.659516 121.77584,331.501942 C125.383123,333.826415 129.346005,335.238564 133.432771,335.874956 C135.295214,342.379989 139.121998,348.012516 144.843679,351.712812 C158.966767,360.820348 179.098039,354.717339 189.98375,338.112109 C203.554771,344.838238 220.482865,341.027568 231.649844,329.126473 C246.171105,336.061123 264.118185,331.105856 273.33548,316.791568 C283.31178,301.296358 279.224317,280.890588 264.205427,271.198353 C259.389668,268.092186 254.028471,266.621009 248.641101,266.350315 C245.197833,260.864138 240.107086,255.657387 233.664786,251.498482 C223.126647,244.701449 211.500426,242.333664 202.467386,244.297329" id="Fill-10" fill="#41540E" sketch:type="MSShapeGroup"></path>
                        <path d="M125.832455,282.265083 C125.832455,282.265083 159.250338,261.48593 166.157115,266.302882 C173.058308,271.126471 180.403389,301.158461 169.715543,309.081581 C159.020368,317.00505 109.218781,300.377815 125.832455,282.265083" id="Fill-12" fill="#000000" sketch:type="MSShapeGroup"></path>
                        <path d="M167.825287,343.170136 C167.825287,343.170136 139.870499,329.012327 140.287865,322.31449 C140.710117,315.621543 158.096057,298.193753 167.897873,302.194782 C177.706668,306.196858 187.019231,346.999318 167.825287,343.170136" id="Fill-14" fill="#000000" sketch:type="MSShapeGroup"></path>
                        <path d="M132.480227,306.334161 C132.480227,306.334161 172.160344,308.942951 181.246077,291.710759 C190.345421,274.473678 194.701938,277.355956 196.034997,282.980448 C197.363169,288.602845 183.985826,321.812257 177.559927,323.221262 C171.129841,324.625726 123.745905,316.249238 128.108006,311.296066 L132.480227,306.334161 Z" id="Fill-16" fill="#6D842C" sketch:type="MSShapeGroup"></path>
                        <path d="M213.960511,216.8976 C213.960511,216.8976 266.095648,254.37105 263.146519,267.797461 C260.183081,281.218983 219.524459,311.026035 200.926203,299.839222 C182.323412,288.638787 176.318368,203.12016 213.960511,216.8976" id="Fill-18" fill="#000000" sketch:type="MSShapeGroup"></path>
                        <path d="M148.400013,318.239099 C148.400013,318.239099 152.29694,267.227467 162.645938,263.681204 C172.990399,260.144721 210.082568,275.516635 210.166669,292.801568 C210.253911,310.098377 154.598384,349.590329 148.400013,318.239099" id="Fill-20" fill="#000000" sketch:type="MSShapeGroup"></path>
                        <path d="M181.850525,241.935412 C181.850525,241.935412 202.659493,303.441231 234.281238,306.408034 C265.919733,309.392302 264.293542,317.762853 256.652187,323.28291 C249.01188,328.79179 190.647313,329.309776 184.518735,320.491795 C178.394345,311.664384 161.468694,234.937542 171.649489,238.431762 L181.850525,241.935412 Z" id="Fill-22" fill="#000000" sketch:type="MSShapeGroup"></path>
                        <path d="M109.730124,234.719694 C109.730124,234.719694 143.147659,213.940541 150.055134,218.757144 C156.955978,223.581082 164.300361,253.612723 153.61391,261.536192 C142.918038,269.459311 93.1161017,252.832426 109.730124,234.719694" id="Fill-24" fill="#000000" sketch:type="MSShapeGroup"></path>
                        <path d="M348.664084,147.510157 C348.214613,146.932095 347.714542,146.434018 347.172245,146.006147 C346.890628,145.374994 346.53154,144.767942 346.08172,144.190229 C336.976095,132.481238 294.738741,134.896875 270.732876,153.598846 C248.991814,170.536942 245.243547,189.837233 251.28593,201.709339 C251.765063,201.287755 252.262692,200.875253 252.778467,200.473578 C260.503923,194.454745 269.540801,192.945846 273.78181,196.744291 C231.123949,233.767516 190.759157,294.370439 190.759157,294.370439 L195.755683,302.746229 C195.755683,302.746229 225.119953,243.585841 275.529791,199.238516 C277.59638,204.330702 273.91023,212.313549 266.484538,218.097664 C265.945731,218.517851 265.399596,218.914985 264.849971,219.290463 C265.410065,220.345645 266.071011,221.362755 266.831063,222.339348 C275.936339,234.048339 295.694215,235.539076 319.699731,216.836406 C343.706992,198.133387 357.769709,159.219497 348.664084,147.510157" id="Fill-26" fill="#000000" sketch:type="MSShapeGroup"></path>
                        <path d="M187.175674,293.0147 C187.175674,293.0147 258.742053,185.566384 311.993189,169.408236 C237.414867,210.237939 192.17185,301.390489 192.17185,301.390489 L187.175674,293.0147 Z" id="Fill-28" fill="#547714" sketch:type="MSShapeGroup"></path>
                        <path d="M342.498516,142.83442 C333.392891,131.125778 291.155187,133.541066 267.149322,152.243386 C245.408609,169.181133 241.659994,188.481774 247.702377,200.35353 C248.18151,199.932295 248.679138,199.519793 249.195262,199.118118 C257.463015,192.676305 267.233773,191.400377 271.018681,196.266927 C274.80324,201.133826 271.169435,210.301089 262.900636,216.742204 C262.361829,217.162391 261.816043,217.559176 261.266069,217.935353 C261.82721,218.990185 262.488155,220.007295 263.24751,220.984238 C272.353135,232.692879 292.110662,234.183267 316.116876,215.480597 C340.12309,196.777927 354.185806,157.864037 345.080182,146.155046 C344.630711,145.576635 344.131337,145.078558 343.588692,144.651037 C343.307075,144.019534 342.947638,143.412482 342.498516,142.83442" id="Fill-30" fill="#547714" sketch:type="MSShapeGroup"></path>
                        <path d="M272.953639,193.92429 C273.412532,194.514228 273.766735,195.162496 274.022877,195.857219 L339.276423,145.01953 C339.195812,144.906362 339.1152,144.792845 339.028656,144.681774 C337.371406,142.550453 334.702847,140.900094 331.317857,139.731046 L311.62105,158.716984 L323.845054,138.060778 C319.440029,137.496338 314.45502,137.462807 309.215962,137.967171 L299.725774,163.629989 L302.008026,138.976247 C297.13329,139.868664 292.177245,141.196286 287.384866,142.966798 L291.856543,169.739286 L281.141478,145.576286 C276.756344,147.635654 272.617234,150.094601 268.940506,152.958716 C268.242221,153.502898 267.570806,154.048128 266.911256,154.595104 L282.450806,178.141621 L261.731523,159.291903 C257.395943,163.618113 254.192765,167.970869 252.011365,172.220587 L278.758026,187.14053 L249.224157,179.474482 C247.56272,185.983357 248.302881,192.036769 250.96481,197.107649 C251.406254,196.716104 251.86445,196.334688 252.340791,195.9634 C259.975515,190.015472 269.203628,189.102448 272.953639,193.92429" id="Fill-32" fill="#4A660C" sketch:type="MSShapeGroup"></path>
                        <path d="M276.606602,197.876385 C276.147709,197.286796 275.604715,196.785576 274.990182,196.36993 L341.789308,144.327916 C341.879341,144.433748 341.969375,144.53993 342.05557,144.651002 C343.71282,146.782672 344.635841,149.792088 344.901405,153.391791 L321.170178,168.24048 L344.593964,161.123854 C344.000719,165.582442 342.736756,170.48427 340.880246,175.508346 L313.261514,178.756322 L338.015567,182.346246 C335.872902,186.921145 333.281465,191.473342 330.299533,195.759734 L305.226174,185.037117 L326.118546,201.272456 C322.959338,205.090461 319.472797,208.572806 315.708827,211.504681 C314.99449,212.060739 314.285386,212.591299 313.578028,213.109983 L294.544261,192.285074 L307.627424,217.084466 C302.259248,220.317772 297.160126,222.433375 292.428118,223.56959 L284.765477,193.782098 L284.593784,224.591241 C277.782974,224.683452 272.042448,222.524538 267.766193,218.711772 C268.265218,218.371222 268.757961,218.011461 269.245469,217.631791 C277.06061,211.542753 280.356614,202.698227 276.606602,197.876385" id="Fill-34" fill="#3D5106" sketch:type="MSShapeGroup"></path>
                        <path d="M170.72085,14.6819067 C169.152588,10.0057153 159.215023,4.12065789 154.299458,3.76438995 C140.733672,2.78011244 113.603147,14.2879163 103.592997,23.5054761 C99.9222011,26.8854809 96.3868053,38.2755766 98.4778221,42.8075144 C100.0747,46.2678541 111.917282,49.3953278 112.58416,49.5696196 L188.284764,269.005524 C188.284764,269.005524 202.389008,278.676801 226.779087,269.181562 C256.282246,257.694715 257.605184,242.017529 257.605184,242.017529 L165.515293,29.631189 C166.197526,28.4345478 171.914321,18.2410933 170.72085,14.6819067" id="Fill-36" fill="#000000" sketch:type="MSShapeGroup"></path>
                        <g id="Group-40">
                            <mask id="mask-4" sketch:name="Clip 39" fill="white">
                                <use xlink:href="#path-3"></use>
                            </mask>
                            <g id="Clip-39"></g>
                            <path d="M158.055541,11.2815388 C156.487977,6.60499809 146.550063,0.720289952 141.634847,0.363672727 C128.068712,-0.620604785 100.938187,10.8875483 90.9283857,20.1047589 C87.2575902,23.4851129 83.7218454,34.8752086 85.8132113,39.4071464 C87.4100893,42.8674861 99.252322,45.9949598 99.9192,46.1689024 L175.620153,265.604807 C175.620153,265.604807 189.724048,275.276433 214.114476,265.780845 C243.617984,254.293998 244.940573,238.617161 244.940573,238.617161 L152.850333,26.2304718 C153.532915,25.0345292 159.249361,14.8410746 158.055541,11.2815388" id="Fill-38" fill="#F2EDEC" sketch:type="MSShapeGroup" mask="url(#mask-4)"></path>
                        </g>
                        <path d="M284.271442,91.779512 C283.449971,91.3195072 282.611052,90.9796555 281.755033,90.7442392 C281.106651,90.1375359 280.377307,89.598244 279.556883,89.1389378 C262.930647,79.8270718 214.121874,103.806 195.030527,137.954632 C177.740553,168.881134 182.934943,193.609971 196.014966,204.646943 C196.371611,203.907861 196.755127,203.170526 197.165165,202.437033 C203.309795,191.446866 213.25748,185.14267 220.174028,187.520234 C188.141547,252.688278 170.591244,344.631952 170.591244,344.631952 L180.688287,352.051756 C180.688287,352.051756 185.931881,267.316569 223.489225,189.598813 C228.478073,194.595646 228.096651,205.891086 222.191761,216.453033 C221.76288,217.220756 221.314456,217.963679 220.851026,218.683201 C222.041007,219.65211 223.332189,220.525665 224.718639,221.303167 C241.345225,230.614684 265.484047,222.500856 284.575394,188.351526 C303.66709,154.202545 300.897679,101.091378 284.271442,91.779512" id="Fill-41" fill="#000000" sketch:type="MSShapeGroup"></path>
                        <path d="M177.921563,342.779254 C177.921563,342.779254 194.283979,177.625661 244.946471,127.109311 C184.97351,218.505311 188.643259,349.261933 188.643259,349.261933 L177.921563,342.779254 Z" id="Fill-43" fill="#547714" sketch:type="MSShapeGroup"></path>
                        <path d="M263.520961,78.5232708 C246.126297,70.7437062 199.666777,99.0132182 183.716492,134.740256 C169.271307,167.096022 176.663847,191.257625 190.681198,201.073855 C190.970841,200.306132 191.285959,199.537362 191.628995,198.769989 C197.122451,186.464424 207.436901,179.112032 214.666823,182.344639 C221.897093,185.578295 223.305179,198.175161 217.811723,210.480027 C217.453333,211.282678 217.073307,212.062974 216.67653,212.821266 C217.948519,213.679453 219.312984,214.433553 220.763644,215.083218 C238.158308,222.862084 261.471821,212.611697 277.421408,176.88396 C293.372042,141.156223 285.847941,88.5089024 268.453626,80.7296871 C267.594117,80.3454766 266.727978,80.082467 265.853813,79.92529 C265.154132,79.3790124 264.379772,78.9071321 263.520961,78.5232708" id="Fill-45" fill="#547714" sketch:type="MSShapeGroup"></path>
                        <path d="M215.448755,178.518007 C216.325363,178.909553 217.118568,179.43173 217.82802,180.06428 L261.184166,82.9494809 C261.02399,82.8698445 260.864511,82.7898589 260.699101,82.7161603 C257.533262,81.3001699 253.510009,81.0410024 248.965048,81.7605239 L238.073753,115.205002 L239.479048,84.3822368 C234.141232,86.4045813 228.465266,89.3797679 222.826639,93.1181364 L227.54399,127.968127 L215.258568,98.6200311 C210.266579,102.578098 205.445585,107.080347 201.076155,111.986017 L222.30214,139.655112 L195.566995,118.719132 C191.835131,123.706883 188.622879,128.997462 186.179405,134.469318 C185.716324,135.508084 185.283952,136.532878 184.865191,137.552433 L216.700504,154.872644 L181.822538,146.011352 C179.514812,153.539433 178.506643,160.414356 178.595979,166.553342 L217.941435,167.313031 L179.810388,176.467022 C181.852898,184.855734 186.344815,191.275892 192.424189,195.419079 C192.688707,194.708988 192.978001,193.998897 193.294515,193.289505 C198.367116,181.92805 208.286185,175.314739 215.448755,178.518007" id="Fill-47" fill="#4A660C" sketch:type="MSShapeGroup"></path>
                        <path d="M221.977914,180.793092 C221.101655,180.401896 220.182822,180.161939 219.235024,180.060997 L263.617486,80.6461737 C263.783246,80.712188 263.949355,80.7782024 264.115114,80.851901 C267.281302,82.2678914 270.143887,85.1250206 272.617024,89.0485086 L254.652844,120.236973 L276.93376,98.0058531 C278.9494,103.422174 280.473692,109.747327 281.398458,116.56881 L252.025463,136.947336 L282.274368,126.057762 C282.604492,132.542537 282.409767,139.273207 281.613771,145.938561 L246.699163,148.929116 L280.196612,154.719518 C278.91555,160.960844 277.061831,167.018097 274.560079,172.620236 C274.085831,173.683102 273.600765,174.713135 273.111163,175.729198 L238.954863,163.607705 L268.758484,183.834992 C264.619373,190.746939 260.110705,196.229274 255.427902,200.378399 L228.763598,171.217169 L247.15666,206.272188 C239.485295,210.493963 231.670503,211.514217 224.519448,209.773743 C224.879235,209.086006 225.221572,208.380107 225.545415,207.654647 C230.738409,196.023198 229.140833,183.997059 221.977914,180.793092" id="Fill-49" fill="#3D5106" sketch:type="MSShapeGroup"></path>
                        <path d="M230.650992,388.371666 C230.650992,388.371666 102.96112,282.49547 89.4190638,212.213585 C131.628152,313.068149 242.013743,383.095408 242.013743,383.095408 L230.650992,388.371666 Z" id="Fill-51" fill="#547714" sketch:type="MSShapeGroup"></path>
                        <path d="M59.5447069,169.64491 C43.3780615,179.735326 40.8365268,234.095527 61.5233561,267.300398 C80.2591047,297.372206 104.408744,304.738919 120.375431,298.589804 C119.900486,297.920579 119.440197,297.229 118.99596,296.515766 C111.87038,285.079216 111.54235,272.409 118.26208,268.214469 C124.981461,264.020637 136.205322,269.891024 143.330204,281.327575 C143.794681,282.073292 144.228797,282.824948 144.634996,283.57835 C146.057739,283.001685 147.444189,282.290895 148.7933,281.449474 C164.959945,271.359058 169.495135,246.27989 148.807259,213.07467 C128.12008,179.870149 80.2953974,156.693522 64.1291009,166.784288 C63.3306619,167.282015 62.6281891,167.854489 62.0098176,168.491929 C61.1663617,168.767512 60.342797,169.146484 59.5447069,169.64491" id="Fill-53" fill="#547714" sketch:type="MSShapeGroup"></path>
                        <path d="M115.52795,265.426882 C116.342442,264.918327 117.217654,264.55193 118.138929,264.316514 L61.906209,174.057777 C61.7505692,174.146495 61.5952784,174.234165 61.4410345,174.329868 C58.4988844,176.166744 56.0362165,179.360581 54.0921152,183.535901 L75.7155749,211.265772 L50.9629182,192.874662 C49.6560326,198.435236 48.9493722,204.80859 48.8949332,211.577681 L80.4053572,227.138208 L49.2240101,220.934256 C49.7136124,227.289447 50.7496987,233.807753 52.3727493,240.175868 L87.158937,238.020447 L54.8720589,248.511141 C56.9191058,254.395849 59.5074023,260.018944 62.6753347,265.104145 C63.2773047,266.07026 63.8845092,267.001098 64.4948544,267.918313 L96.6369107,251.17372 L69.8033572,275.171509 C74.751027,281.294078 79.8839989,285.972366 85.0201114,289.328968 L107.637432,257.09615 L93.9128657,293.861256 C102.003691,296.854256 109.833489,296.713844 116.663841,293.982806 C116.223095,293.366672 115.796656,292.729581 115.386269,292.070485 C108.807522,281.510983 108.870686,269.581944 115.52795,265.426882" id="Fill-55" fill="#4A660C" sketch:type="MSShapeGroup"></path>
                        <path d="M121.061747,261.279295 C120.247604,261.788199 119.53536,262.416209 118.922921,263.146907 L61.3574916,170.750912 C61.5044071,170.64962 61.6523696,170.549027 61.8062645,170.452974 C64.7484146,168.616448 68.7154841,167.8365 73.3480356,167.977261 L89.1500094,200.31696 L83.1823058,169.399888 C88.7961557,170.753357 94.8884409,173.022644 101.056801,176.067338 L101.526512,211.83629 L109.408306,180.643285 C114.965972,183.993252 120.433953,187.91639 125.510741,192.301979 L108.477259,222.952898 L131.99422,198.385778 C136.449495,202.936577 140.432268,207.860759 143.675927,213.067161 C144.291158,214.054931 144.873585,215.033969 145.441705,216.008118 L116.310546,237.583984 L149.725289,224.150587 C153.138546,231.449189 155.161165,238.254606 155.982287,244.459955 L116.919844,250.295414 L156.243315,254.619529 C155.4536,263.345998 151.931814,270.402548 146.492797,275.3655 C146.124636,274.682304 145.731,274.003998 145.310842,273.329534 C138.576107,262.519247 127.719709,257.124233 121.061747,261.279295" id="Fill-57" fill="#3D5106" sketch:type="MSShapeGroup"></path>
                    </g>
                    <g id="Page-1" transform="translate(605.000000, 466.000000)">
                        <g id="Group-3">
                            <mask id="mask-6" sketch:name="Clip 2" fill="white">
                                <use xlink:href="#path-5"></use>
                            </mask>
                            <g id="Clip-2"></g>
                            <path id="Fill-1" fill="#4A660C" sketch:type="MSShapeGroup" mask="url(#mask-6)" d="M154.579329,0.165515443 C154.579329,0.165515443 154.607819,0.62552557 154.641736,1.46616354 C154.681419,0.643166076 154.579329,0.165515443 154.579329,0.165515443"></path>
                        </g>
                        <path d="M154.641601,1.46612962 C154.419106,6.10693975 149.580528,21.9243676 95.1816335,27.4332942 C16.498953,35.4037499 3.14249781,94.2436587 0.873799781,113.648216 C20.7595875,106.390504 69.7080449,86.436717 115.437115,51.3042916 C65.827279,94.4278663 14.3306488,117.065046 0.000101750547,122.885395 C3.18251969,125.044661 17.8237451,126.211309 72.8853753,117.399876 C155.823942,104.12777 155.097443,13.3805954 154.641601,1.46612962" id="Fill-4" fill="#4A660C" sketch:type="MSShapeGroup"></path>
                        <g id="Group-8">
                            <mask id="mask-8" sketch:name="Clip 7" fill="white">
                                <use xlink:href="#path-7"></use>
                            </mask>
                            <g id="Clip-7"></g>
                            <path d="M154.688643,7.60492405 C155.073939,23.6211468 154.551958,118.753344 74.1069584,131.625486 C24.512046,139.563375 4.77617068,125.252853 0,122.885294 C77.3555142,92.7057797 132.706794,49.6514101 154.688643,7.60492405" id="Fill-6" fill="#5E771B" sketch:type="MSShapeGroup" mask="url(#mask-8)"></path>
                        </g>
                    </g>
                    <g id="Page-1" transform="translate(482.000000, 0.000000)" sketch:type="MSShapeGroup">
                        <path d="M71.7642037,561.432287 C64.9219913,580.655997 43.7913495,590.693132 24.5677013,583.850822 C5.34378848,577.008776 -4.69306133,555.878118 2.14915101,536.655202 C8.99162792,517.432286 30.1222697,507.394886 49.345918,514.237197 C68.5695662,521.079243 78.6066806,542.209106 71.7642037,561.432287" id="Fill-1" fill="#7F7F7F"></path>
                        <path d="M61.1730347,557.700539 C56.4166626,571.062926 41.7287382,578.039633 28.3665552,573.283112 C15.003843,568.52712 8.02696647,553.839553 12.7833385,540.47743 C17.539446,527.115043 32.2273704,520.1386 45.589818,524.894592 C58.9522656,529.650584 65.9294067,544.338151 61.1730347,557.700539" id="Fill-3" fill="#ADADAD"></path>
                        <path d="M419.587679,346.280813 L410.939009,343.202395 L450.108571,233.156093 L458.757771,236.234246 L419.587679,346.280813 Z" id="Fill-5" fill="#000000"></path>
                        <path d="M604.062423,83.3072151 C597.963113,70.4668042 589.188244,59.5428647 578.100537,51.0446742 L575.658326,57.9060331 C601.95674,79.3697713 612.947087,115.518696 601.014355,149.043452 L591.369063,176.140991 C576.173701,218.831686 529.219541,241.152598 486.527808,225.95787 L424.588881,203.912365 C381.897413,188.717371 359.356633,141.661439 374.551731,98.9710083 L384.196758,71.8732042 C396.300664,37.8672142 428.676959,16.7667167 463.087503,17.3267898 L465.513047,10.512258 C451.274885,9.92043765 436.903646,12.7723925 423.618187,19.0829379 C402.137524,29.2862164 385.908237,47.2405686 377.933946,69.6440232 L368.288654,96.7415627 C360.314627,119.145282 361.513906,143.315467 371.716903,164.795608 C381.92043,186.276013 399.849291,202.499086 422.253555,210.473448 L484.192482,232.518953 C506.59701,240.493051 530.769106,239.254382 552.249769,229.051368 C573.730961,218.848354 589.95628,200.87998 597.930306,178.476261 L607.575334,151.378721 C615.54989,128.975002 614.265685,104.787356 604.062423,83.3072151" id="Fill-7" fill="#AFAFAF"></path>
                        <path d="M478.597038,18.1018707 C476.123873,25.0507989 468.485581,28.6792368 461.536219,26.2058671 C454.586857,23.7324973 450.958596,16.0941262 453.431761,9.14519801 C455.90572,2.1962698 463.544277,-1.43216813 470.493374,1.04120163 C477.442207,3.51457138 481.070468,11.1529425 478.597038,18.1018707" id="Fill-9" fill="#000000"></path>
                        <path d="M581.828778,54.8444146 C579.355348,61.7936074 571.716791,65.4212516 564.767959,62.9481465 C557.818597,60.4747767 554.1906,52.8366702 556.66403,45.8877419 C559.136931,38.9388137 566.775488,35.3103758 573.724585,37.7837456 C580.674211,40.2568507 584.302737,47.8954864 581.828778,54.8444146" id="Fill-11" fill="#000000"></path>
                        <path d="M500.459946,243.684965 L409.796268,211.41581 L416.483444,192.627301 L507.147123,224.89672 L500.459946,243.684965 Z" id="Fill-13" fill="#666666"></path>
                        <path d="M457.893221,264.151551 L432.244846,255.02265 L446.787524,214.165618 L472.435634,223.294255 L457.893221,264.151551 Z" id="Fill-15" fill="#666666"></path>
                        <path d="M420.790609,316.467858 L410.710106,344.788458 C392.255023,396.638478 328.699066,421.790445 269.239918,400.627511 L211.343298,380.020947 L208.583343,387.774931 L266.479963,408.381495 C297.683171,419.487452 330.691779,419.220246 359.603843,407.832534 C388.516966,396.44535 409.674064,375.077118 419.359041,347.866876 L429.439544,319.546276 L420.790609,316.467858 Z" id="Fill-17" fill="#000000"></path>
                        <path d="M67.7605755,444.504599 L76.4095108,447.582752 L37.2396839,557.62879 L28.5907486,554.550637 L67.7605755,444.504599 Z" id="Fill-19" fill="#000000"></path>
                        <path d="M66.8558912,474.423113 L76.9866621,445.960974 C95.4422745,394.110953 159.121254,369.162433 218.580667,390.325367 L276.303202,410.86976 L279.063157,403.116305 L221.340622,382.571383 C190.137149,371.465162 157.067162,371.631305 128.154833,383.018225 C99.2417104,394.405938 78.0232326,415.672314 68.3379914,442.882556 L58.206956,471.34496 L66.8558912,474.423113 Z" id="Fill-21" fill="#000000"></path>
                        <path d="M51.3317522,554.22044 C48.4109408,562.426821 39.3900254,566.711367 31.1834449,563.790626 C22.9765999,560.869621 18.6914203,551.84919 21.6124963,543.642809 C24.5335722,535.435899 33.5544877,531.151617 41.7613327,534.072357 C49.9681778,536.993362 54.2528282,546.013794 51.3317522,554.22044" id="Fill-23" fill="#000000"></path>
                    </g>
                    <g id="Page-1" transform="translate(778.000000, 434.000000)">
                        <g id="Group-3">
                            <mask id="mask-10" sketch:name="Clip 2" fill="white">
                                <use xlink:href="#path-9"></use>
                            </mask>
                            <g id="Clip-2"></g>
                            <path d="M273.675097,47.1197223 C336.361888,109.693394 336.45422,211.237654 273.880278,273.924446 C211.306336,336.611777 109.762886,336.703298 47.0752844,274.130166 C-15.611237,211.556764 -15.7038384,110.012504 46.8701036,47.3254431 C109.444046,-15.3621583 210.988305,-15.4539497 273.675097,47.1197223" id="Fill-1" fill="#494949" sketch:type="MSShapeGroup" mask="url(#mask-10)"></path>
                        </g>
                        <path d="M256.47055,64.3559374 C309.638031,117.427847 309.716324,203.551958 256.644684,256.71944 C203.572774,309.888001 117.448393,309.965753 64.2803715,256.894113 C11.1120805,203.821933 11.0345977,117.697822 64.1062378,64.5295312 C117.178688,11.3617802 203.301989,11.2842974 256.47055,64.3559374" id="Fill-4" fill="#1C1C1C" sketch:type="MSShapeGroup"></path>
                        <path d="M245.769371,74.8873292 C293.06895,122.101597 293.138334,198.719896 245.924606,246.019476 C198.710069,293.319325 122.09204,293.388439 74.79327,246.174171 C27.4936905,198.959904 27.423767,122.341874 74.6383045,75.0425647 C121.852032,27.7429852 198.470331,27.6736017 245.769371,74.8873292" id="Fill-6" fill="#353535" sketch:type="MSShapeGroup"></path>
                        <path d="M223.325882,104.518626 C256.230137,137.363756 256.278463,190.664605 223.433602,223.56967 C190.588742,256.473924 137.287893,256.52198 104.383639,223.67658 C71.4791137,190.831989 71.4299783,137.530871 104.275649,104.626076 C137.119969,71.722091 190.420818,71.6740355 223.325882,104.518626" id="Fill-8" fill="#494949" sketch:type="MSShapeGroup"></path>
                        <path d="M163.966233,191.275963 C174.327595,196.200033 195.578119,210.600487 190.769058,220.721031 C185.958378,230.843465 156.911522,232.850187 146.550161,227.926117 C136.189339,223.003128 131.68724,210.807017 136.49684,200.687013 C141.306171,190.565389 153.606491,186.352973 163.966233,191.275963" id="Fill-10" fill="#161616" sketch:type="MSShapeGroup"></path>
                        <path d="M161.416753,192.733934 C171.776765,197.657194 193.028099,212.056839 188.218498,222.177923 C183.408088,232.300897 154.359613,234.308699 143.999601,229.385169 C133.638239,224.461639 129.13614,212.266609 133.946281,202.143905 C138.755881,192.022281 151.055392,187.809595 161.416753,192.733934" id="Fill-12" fill="#B27850" sketch:type="MSShapeGroup"></path>
                        <g id="Group-18" transform="translate(143.896552, 200.051304)" fill="#93562C" sketch:type="MSShapeGroup">
                            <path d="M9.49476964,0.533011186 C6.69054172,-0.123027502 2.58908503,0.610493944 0.912541716,0.969560387 C3.68707241,2.24195147 16.1555871,8.03480008 21.9646342,12.0306966 C28.5279908,16.542515 35.4847007,19.8478161 39.1485283,20.1968934 C42.8145156,20.5475907 30.4915173,18.2684637 27.4966872,13.5754923 C24.5050968,8.88441068 13.1000127,1.37506249 9.49476964,0.533011186" id="Fill-14"></path>
                            <path id="Fill-16" d="M0.168788225,1.14887763 C0.168788225,1.14887763 0.450371909,1.07868419 0.926607401,0.975553827 C0.568890833,0.814108915 0.370999327,0.724747267 0.370999327,0.724747267 L0.168788225,1.14887763 Z"></path>
                        </g>
                        <path d="M137.903112,202.278244 C137.903112,202.278244 151.033335,206.774944 155.233872,209.291649 C159.43306,211.811863 166.845217,216.730264 169.828708,218.148171 C172.80923,219.564729 159.417131,214.774027 157.207118,213.197644 C154.998184,211.616402 137.903112,202.278244 137.903112,202.278244" id="Fill-19" fill="#93562C" sketch:type="MSShapeGroup"></path>
                        <path d="M145.609245,213.663593 C145.609245,213.663593 159.300205,215.928682 163.858189,217.717805 C168.417253,219.504768 176.543764,223.125399 179.717857,224.031165 C182.89357,224.93315 168.892679,222.430214 166.451837,221.239895 C164.013695,220.046337 145.609245,213.663593 145.609245,213.663593" id="Fill-21" fill="#93562C" sketch:type="MSShapeGroup"></path>
                        <path d="M134.037775,218.95788 C134.037775,218.95788 147.729815,221.223778 152.288609,223.012631 C156.845244,224.800404 164.971754,228.424545 168.147467,229.325721 C171.32507,230.231756 157.321209,227.72639 154.881447,226.534452 C152.441685,225.344673 134.037775,218.95788 134.037775,218.95788" id="Fill-23" fill="#93562C" sketch:type="MSShapeGroup"></path>
                        <path d="M157.319157,198.43321 C157.319157,198.43321 170.114341,203.804358 174.136696,206.601026 C178.15932,209.396615 185.225909,214.79935 188.10465,216.415149 C190.984471,218.028519 177.94091,212.352839 175.845906,210.62932 C173.747662,208.905531 157.319157,198.43321 157.319157,198.43321" id="Fill-25" fill="#93562C" sketch:type="MSShapeGroup"></path>
                        <path d="M149.043513,205.946095 C149.043513,205.946095 162.173466,210.442254 166.373733,212.960849 C170.57427,215.480254 177.985348,220.397574 180.969649,221.816022 C183.94963,223.231769 170.557802,218.443227 168.347519,216.867654 C166.138585,215.286682 149.043513,205.946095 149.043513,205.946095" id="Fill-27" fill="#BF8A66" sketch:type="MSShapeGroup"></path>
                        <path d="M144.689927,210.169985 C144.689927,210.169985 158.364689,212.541443 162.909984,214.365393 C167.451229,216.190152 175.548853,219.873958 178.719166,220.803481 C181.88948,221.733274 167.907217,219.116949 165.476094,217.909352 C163.044431,216.699865 144.689927,210.169985 144.689927,210.169985" id="Fill-29" fill="#BF8A66" sketch:type="MSShapeGroup"></path>
                        <path d="M134.70796,217.498585 C134.70796,217.498585 148.381913,219.868424 152.925858,221.693723 C157.470613,223.517942 165.567426,227.202018 168.73801,228.132351 C171.904274,229.059985 157.923901,226.448789 155.494938,225.236332 C153.060845,224.025765 134.70796,217.498585 134.70796,217.498585" id="Fill-31" fill="#BF8A66" sketch:type="MSShapeGroup"></path>
                        <path d="M176.665846,102.580288 C173.128637,106.916623 175.929085,115.053932 182.919002,120.757689 C189.912698,126.452537 198.44957,127.560243 201.98678,123.222019 C202.867437,122.13807 203.355012,120.817084 203.48568,119.35409 C203.859595,114.967 200.968975,109.318858 195.725795,105.042728 C188.736958,99.3462603 180.201166,98.2385538 176.665846,102.580288" id="Fill-33" fill="#161616" sketch:type="MSShapeGroup"></path>
                        <path d="M194.379242,100.208263 C199.622962,104.486283 202.508992,110.129296 202.131837,114.515306 C202.007379,115.977759 201.519534,117.297396 200.635907,118.383504 C197.095458,122.721459 188.561015,121.619422 181.571099,115.916205 C174.576322,110.221627 171.780734,102.077028 175.310654,97.7417733 C178.851913,93.4048986 187.383386,94.5072056 194.379242,100.208263" id="Fill-35" fill="#DDCDAB" sketch:type="MSShapeGroup"></path>
                        <path d="M190.666306,99.9849396 C194.79179,103.347205 197.060658,107.782081 196.762066,111.228579 C196.661635,112.381101 196.281781,113.415644 195.585786,114.267145 C192.809095,117.673686 186.099413,116.807877 180.605966,112.330076 C175.116029,107.853354 172.914655,101.454412 175.686756,98.0476007 C178.469116,94.6388992 185.173399,95.508218 190.666306,99.9849396" id="Fill-37" fill="#E8DCC8" sketch:type="MSShapeGroup"></path>
                        <path d="M175.310708,97.7418272 C175.28884,97.7734143 175.268322,97.8031115 175.241594,97.8346986 L200.561178,118.47238 C200.583856,118.440253 200.609233,118.415415 200.635961,118.383558 C201.519588,117.29745 202.007433,115.977813 202.131891,114.51536 C202.509046,110.12935 199.623016,104.486067 194.379296,100.208317 C187.38344,94.5069896 178.851967,93.4049526 175.310708,97.7418272" id="Fill-39" fill="#AD956C" sketch:type="MSShapeGroup"></path>
                        <path d="M186.991841,103.211462 C190.694275,106.22438 192.120012,110.602021 190.184833,112.978069 C188.247494,115.354117 183.678171,114.833876 179.974657,111.813668 C176.278162,108.79994 174.848646,104.429588 176.782745,102.053 C178.719544,99.6774923 183.287787,100.193144 186.991841,103.211462" id="Fill-41" fill="#FFFFFF" sketch:type="MSShapeGroup"></path>
                        <path d="M154.586176,94.651912 C149.100288,95.7552989 146.096279,103.820255 147.874603,112.664629 C149.661026,121.506032 155.552145,127.782406 161.038573,126.677129 C162.407075,126.399595 163.623041,125.687941 164.653265,124.641519 C167.727738,121.489564 169.081391,115.289863 167.746096,108.657933 C165.964802,99.8189591 160.074493,93.5428557 154.586176,94.651912" id="Fill-43" fill="#161616" sketch:type="MSShapeGroup"></path>
                        <path d="M169.776468,104.068065 C171.110683,110.701885 169.75595,116.894836 166.679587,120.043282 C165.654763,121.093484 164.439877,121.803787 163.067595,122.081861 C157.578468,123.183629 151.684919,116.913465 149.906865,108.068551 C148.120172,99.2282273 151.13228,91.1608413 156.612498,90.0539447 C162.101895,88.9521777 167.992475,95.2207219 169.776468,104.068065" id="Fill-45" fill="#DDCDAB" sketch:type="MSShapeGroup"></path>
                        <path d="M167.050371,101.537565 C168.101923,106.754827 167.037682,111.621662 164.618978,114.094631 C163.809054,114.920484 162.859013,115.479062 161.780193,115.694501 C157.472206,116.56247 152.838629,111.633271 151.43935,104.68574 C150.04088,97.7414493 152.40343,91.4000119 156.708447,90.5288034 C161.022374,89.6627243 165.649472,94.5913837 167.050371,101.537565" id="Fill-47" fill="#E8DCC8" sketch:type="MSShapeGroup"></path>
                        <path d="M156.612579,90.0538907 C156.574783,90.0633399 156.540226,90.0744088 156.49973,90.0814282 L162.953747,122.102056 C162.992353,122.092337 163.02664,122.089637 163.067676,122.081807 C164.439688,121.803733 165.654574,121.0937 166.679668,120.043228 C169.756031,116.894782 171.110764,110.702101 169.776549,104.068011 C167.992286,95.2209378 162.101976,88.9521237 156.612579,90.0538907" id="Fill-49" fill="#AD956C" sketch:type="MSShapeGroup"></path>
                        <path d="M162.162073,101.696553 C163.108874,106.375215 161.430711,110.662145 158.426972,111.269318 C155.421613,111.874331 152.222412,108.57092 151.27858,103.885508 C150.337178,99.210355 152.008322,94.9266653 155.011521,94.3181422 C158.01742,93.7136687 161.217701,97.0133003 162.162073,101.696553" id="Fill-51" fill="#FFFFFF" sketch:type="MSShapeGroup"></path>
                        <path d="M147.744259,70.2165497 C144.20759,74.5528844 147.008038,82.6907339 153.997955,88.3939509 C160.991921,94.0887987 169.529063,95.1965051 173.066003,90.8585505 C173.94639,89.7743319 174.433695,88.4533453 174.565172,86.9903521 C174.938548,82.603532 172.047388,76.9553899 166.804478,72.6789896 C159.815641,66.982522 151.280389,65.8742755 147.744259,70.2165497" id="Fill-53" fill="#161616" sketch:type="MSShapeGroup"></path>
                        <path d="M165.458465,67.8444974 C170.701375,72.1219776 173.587675,77.7655302 173.21079,82.1518103 C173.086332,83.6139936 172.597947,84.9339003 171.71486,86.0200087 C168.174951,90.3574234 159.639698,89.2559263 152.650052,83.5521694 C145.655815,77.8575916 142.859417,69.7129928 146.390417,65.3780079 C149.930866,61.0408632 158.462338,62.1431702 165.458465,67.8444974" id="Fill-55" fill="#DDCDAB" sketch:type="MSShapeGroup"></path>
                        <path d="M161.745259,67.6212013 C165.870203,70.9831971 168.139341,75.4186125 167.840749,78.8648405 C167.740318,80.0170928 167.361004,81.0519061 166.664469,81.9031365 C163.888048,85.3096781 157.178095,84.444409 151.684649,79.9663375 C146.194982,75.4893459 143.993608,69.090404 146.765439,65.6841323 C149.548339,62.2754309 156.252352,63.1442097 161.745259,67.6212013" id="Fill-57" fill="#E8DCC8" sketch:type="MSShapeGroup"></path>
                        <path d="M146.390444,65.3780889 C146.367226,65.4096759 146.346708,65.4396431 146.32025,65.4715002 L171.640104,86.1086415 C171.663052,86.0765145 171.688429,86.0516768 171.714887,86.0200897 C172.597974,84.9339812 173.086359,83.6140746 173.210817,82.1518913 C173.587702,77.7656112 170.701402,72.1217886 165.458492,67.8445784 C158.462365,62.1432512 149.930893,61.0409442 146.390444,65.3780889" id="Fill-59" fill="#AD956C" sketch:type="MSShapeGroup"></path>
                        <path d="M158.070794,70.8474537 C161.773228,73.8606421 163.198965,78.238823 161.264326,80.614331 C159.326717,82.9906489 154.757394,82.4701375 151.05334,79.4501997 C147.356845,76.4364714 145.927599,72.0661198 147.861698,69.689262 C149.798767,67.313754 154.36674,67.8296758 158.070794,70.8474537" id="Fill-61" fill="#FFFFFF" sketch:type="MSShapeGroup"></path>
                        <path d="M115.549525,76.3031039 C110.063368,77.4067607 107.059358,85.471717 108.837682,94.3155505 C110.624375,103.156414 116.514955,109.433598 122.001922,108.328861 C123.370424,108.050247 124.58585,107.339403 125.616884,106.292171 C128.690817,103.140756 130.0442,96.9410551 128.709175,90.3091249 C126.928152,81.469881 121.037572,75.1943175 115.549525,76.3031039" id="Fill-63" fill="#161616" sketch:type="MSShapeGroup"></path>
                        <path d="M130.739547,85.7192569 C132.073763,92.3533468 130.719839,98.5452182 127.642937,101.693934 C126.617843,102.744676 125.403226,103.454709 124.030944,103.733323 C118.541277,104.83455 112.648268,98.5649263 110.870484,89.719743 C109.083251,80.8788792 112.09509,72.8123031 117.575848,71.7051366 C123.064975,70.6030996 128.955284,76.8719137 130.739547,85.7192569" id="Fill-65" fill="#DDCDAB" sketch:type="MSShapeGroup"></path>
                        <path d="M128.01291,83.1884864 C129.065002,88.4060188 128.000761,93.2731239 125.582057,95.7458228 C124.772133,96.5716756 123.822362,97.1302534 122.743543,97.3459632 C118.435285,98.2136622 113.801708,93.2847328 112.401619,86.3366622 C111.00423,79.3926411 113.366239,73.0514738 117.671527,72.1799952 C121.985723,71.3139161 126.612821,76.2423056 128.01291,83.1884864" id="Fill-67" fill="#E8DCC8" sketch:type="MSShapeGroup"></path>
                        <path d="M117.575902,71.7050826 C117.537565,71.7150717 117.503548,71.7253307 117.462512,71.73262 L123.916529,103.753247 C123.955135,103.742988 123.989962,103.740289 124.030998,103.733269 C125.40328,103.454925 126.617897,102.744892 127.642991,101.69388 C130.719893,98.5451642 132.073817,92.3532929 130.739601,85.7192029 C128.955068,76.8721297 123.065029,70.6030456 117.575902,71.7050826" id="Fill-69" fill="#AD956C" sketch:type="MSShapeGroup"></path>
                        <path d="M123.125422,83.3477445 C124.072763,88.0264072 122.39352,92.3136066 119.390321,92.9205098 C116.384692,93.5249833 113.186031,90.222112 112.241929,85.5369699 C111.300797,80.8615468 112.971671,76.5775872 115.97487,75.969874 C118.979959,75.3651305 122.18078,78.6647622 123.125422,83.3477445" id="Fill-71" fill="#FFFFFF" sketch:type="MSShapeGroup"></path>
                        <path d="M179.394859,159.367537 C177.016111,167.873632 168.874212,185.884459 160.565199,183.561326 C152.254296,181.237923 146.926074,159.460678 149.304551,150.953773 C151.683029,142.447948 160.346249,137.434247 168.655533,139.75711 C176.964816,142.079972 181.772797,150.861172 179.394859,159.367537" id="Fill-73" fill="#161616" sketch:type="MSShapeGroup"></path>
                        <path d="M177.954814,157.623527 C175.576606,166.129352 167.434167,184.140179 159.125153,181.817046 C150.81479,179.493373 145.485488,157.715588 147.863696,149.210033 C150.242174,140.703398 158.905394,135.689157 167.216297,138.01256 C175.525581,140.336502 180.333561,149.117162 177.954814,157.623527" id="Fill-75" fill="#B27850" sketch:type="MSShapeGroup"></path>
                        <g id="Group-81" transform="translate(159.825063, 145.516400)" fill="#93562C" sketch:type="MSShapeGroup">
                            <path d="M11.1214756,7.04588251 C11.2516034,4.83235938 10.1587456,1.81647124 9.66658158,0.591865685 C9.06426787,2.86397334 6.30242599,13.0830583 4.03112826,18.0138775 C1.46825778,23.5850768 -0.128912952,29.296663 0.0862569386,32.1222189 C0.301156854,34.9499347 0.415626156,25.3004965 3.58405004,22.4136563 C6.75139403,19.5289759 10.9551712,9.89195652 11.1214756,7.04588251" id="Fill-77"></path>
                            <path id="Fill-79" d="M9.43256745,0.0513222035 C9.43256745,0.0513222035 9.52219907,0.255153154 9.66339588,0.603150631 C9.73871884,0.310228007 9.78110488,0.148243146 9.78110488,0.148243146 L9.43256745,0.0513222035 Z"></path>
                        </g>
                        <path d="M167.631977,141.032713 C167.631977,141.032713 165.940316,151.584677 164.581533,155.101369 C163.21897,158.61779 160.458748,164.886064 159.773552,167.335815 C159.089706,169.782596 160.96927,158.993595 161.876655,157.110251 C162.78647,155.227717 167.631977,141.032713 167.631977,141.032713" id="Fill-82" fill="#93562C" sketch:type="MSShapeGroup"></path>
                        <path d="M160.003327,148.371087 C160.003327,148.371087 160.07838,159.056418 159.318131,162.749403 C158.559502,166.441848 156.87648,173.082417 156.604615,175.609651 C156.3368,178.137425 156.402674,167.185898 156.985549,165.178096 C157.571665,163.172183 160.003327,148.371087 160.003327,148.371087" id="Fill-84" fill="#93562C" sketch:type="MSShapeGroup"></path>
                        <path d="M154.470438,140.285288 C154.470438,140.285288 154.544951,150.97116 153.784432,154.663604 C153.024993,158.356589 151.34035,164.996079 151.071725,167.524393 C150.80121,170.054056 150.867354,159.09983 151.45212,157.092837 C152.035265,155.086115 154.470438,140.285288 154.470438,140.285288" id="Fill-86" fill="#93562C" sketch:type="MSShapeGroup"></path>
                        <path d="M173.093162,155.261248 C173.093162,155.261248 170.693896,165.673095 169.099155,169.090975 C167.504954,172.509666 164.331671,178.579778 163.48287,180.975804 C162.636499,183.37156 165.233927,172.731045 166.26739,170.916544 C167.300313,169.098264 173.093162,155.261248 173.093162,155.261248" id="Fill-88" fill="#93562C" sketch:type="MSShapeGroup"></path>
                        <path d="M166.308723,149.966151 C166.308723,149.966151 164.617331,160.517575 163.256388,164.034267 C161.895446,167.551768 159.135224,173.818962 158.450298,176.268713 C157.766181,178.716035 159.645476,167.927033 160.551511,166.043689 C161.461596,164.161155 166.308723,149.966151 166.308723,149.966151" id="Fill-90" fill="#BF8A66" sketch:type="MSShapeGroup"></path>
                        <path d="M162.533558,147.216269 C162.533558,147.216269 162.525999,157.903221 161.737672,161.590266 C160.947996,165.275692 159.213948,171.902222 158.923995,174.429186 C158.633772,176.95615 158.786848,166.004354 159.384572,164.001141 C159.983916,161.998468 162.533558,147.216269 162.533558,147.216269" id="Fill-92" fill="#BF8A66" sketch:type="MSShapeGroup"></path>
                        <path d="M155.665022,140.602455 C155.665022,140.602455 155.658812,151.287786 154.868866,154.974831 C154.08081,158.662417 152.345682,165.288407 152.055459,167.815641 C151.766046,170.340175 151.915342,159.390269 152.517386,157.388946 C153.11727,155.383033 155.665022,140.602455 155.665022,140.602455" id="Fill-94" fill="#BF8A66" sketch:type="MSShapeGroup"></path>
                        <path d="M197.665888,77.8145846 C194.128678,82.1511893 196.929396,90.2887688 203.919313,95.9917158 C210.913549,101.687104 219.450422,102.79454 222.987091,98.4568554 C223.867749,97.3723668 224.354783,96.0513802 224.486261,94.5886569 C224.859636,90.2015669 221.968476,84.5531548 216.725836,80.2772944 C209.737269,74.5805569 201.201477,73.4731204 197.665888,77.8145846" id="Fill-96" fill="#161616" sketch:type="MSShapeGroup"></path>
                        <path d="M215.379553,75.4430722 C220.623003,79.7205525 223.509303,85.3635651 223.132149,89.7495752 C223.00742,91.2122985 222.519576,92.5322051 221.636488,93.6183136 C218.095499,97.9554583 209.561327,96.8536913 202.57114,91.1502043 C195.576904,85.4561664 192.780775,77.3118376 196.311505,72.9757728 C199.851954,68.6388981 208.383697,69.7414751 215.379553,75.4430722" id="Fill-98" fill="#DDCDAB" sketch:type="MSShapeGroup"></path>
                        <path d="M211.66659,75.2192362 C215.791805,78.5815019 218.060672,83.0169174 217.76235,86.4628754 C217.66165,87.6151277 217.282065,88.649941 216.5858,89.5014414 C213.80938,92.908253 207.099697,92.0421739 201.60598,87.5643724 C196.116313,83.0876508 193.914669,76.6884389 196.68704,73.2821672 C199.46967,69.8734658 206.173683,70.7427845 211.66659,75.2192362" id="Fill-100" fill="#E8DCC8" sketch:type="MSShapeGroup"></path>
                        <path d="M196.311532,72.9758808 C196.288854,73.0080078 196.268336,73.037705 196.241609,73.0695621 L221.560922,93.7067034 C221.58414,93.6748463 221.609788,93.6500087 221.636515,93.6184216 C222.519603,92.5323131 223.007447,91.2124065 223.132176,89.7496832 C223.50933,85.3636731 220.62303,79.7203905 215.37958,75.4431802 C208.383724,69.7413131 199.851981,68.6387362 196.311532,72.9758808" id="Fill-102" fill="#AD956C" sketch:type="MSShapeGroup"></path>
                        <path d="M207.991883,78.4460286 C211.694316,81.458677 213.120593,85.8365879 211.185684,88.2126358 C209.247805,90.5886838 204.678482,90.0681724 200.974698,87.0485046 C197.278474,84.0347763 195.848687,79.6638848 197.782787,77.2870269 C199.719856,74.9115189 204.288099,75.4277107 207.991883,78.4460286" id="Fill-104" fill="#FFFFFF" sketch:type="MSShapeGroup"></path>
                        <path d="M108.283397,253.164277 L82.8118176,256.731723 L64.6897612,127.335516 L90.1618807,123.76807 L108.283397,253.164277 Z" id="Fill-106" fill="#8E4300" sketch:type="MSShapeGroup"></path>
                        <path d="M108.283397,253.164277 L95.5473373,254.94827 L77.425551,125.551793 L90.1618807,123.76807 L108.283397,253.164277 Z" id="Fill-108" fill="#8C5E3B" sketch:type="MSShapeGroup"></path>
                        <path d="M90.9981545,255.844505 L84.1210872,256.808045 L65.9990309,127.412108 L72.8766381,126.448568 L90.9981545,255.844505 Z" id="Fill-110" fill="#492912" sketch:type="MSShapeGroup"></path>
                        <path d="M88.9069029,196.403917 L85.5956624,196.867464 L75.6784093,126.056592 L78.9901897,125.592775 L88.9069029,196.403917 Z" id="Fill-112" fill="#492912" sketch:type="MSShapeGroup"></path>
                        <path d="M174.589632,272.03797 L154.544546,288.153844 L72.6776667,186.322601 L92.7230233,170.207537 L174.589632,272.03797 Z" id="Fill-114" fill="#8E4300" sketch:type="MSShapeGroup"></path>
                        <path d="M174.589632,272.03797 L164.567359,280.095907 L82.70021,178.265474 L92.7230233,170.207537 L174.589632,272.03797 Z" id="Fill-116" fill="#663913" sketch:type="MSShapeGroup"></path>
                        <path d="M161.120159,283.196594 L155.707705,287.548587 L73.840556,185.717614 L79.2532802,181.366431 L161.120159,283.196594 Z" id="Fill-118" fill="#492912" sketch:type="MSShapeGroup"></path>
                        <path d="M128.865544,233.224885 L126.259478,235.319889 L81.4582451,179.593858 L84.0645815,177.498313 L128.865544,233.224885 Z" id="Fill-120" fill="#492912" sketch:type="MSShapeGroup"></path>
                        <path d="M148.779882,265.920315 L123.308033,269.487491 L105.186247,140.091824 L130.657826,136.524918 L148.779882,265.920315 Z" id="Fill-122" fill="#8E4300" sketch:type="MSShapeGroup"></path>
                        <path d="M148.779882,265.920315 L136.043553,267.704038 L117.922036,138.307831 L130.657826,136.524918 L148.779882,265.920315 Z" id="Fill-124" fill="#663913" sketch:type="MSShapeGroup"></path>
                        <path d="M131.49491,268.600813 L124.617303,269.564623 L106.494976,140.168146 L113.372583,139.205146 L131.49491,268.600813 Z" id="Fill-126" fill="#492912" sketch:type="MSShapeGroup"></path>
                        <path d="M129.403118,209.159955 L126.091878,209.624042 L116.174625,138.81263 L119.486405,138.348543 L129.403118,209.159955 Z" id="Fill-128" fill="#492912" sketch:type="MSShapeGroup"></path>
                        <path d="M155.530034,150.607072 C151.878086,162.71598 143.073939,170.769057 135.869662,168.59603 C128.659446,166.425163 125.776655,154.844596 129.428874,142.735417 C133.081632,130.625969 141.88578,122.569652 149.093296,124.745379 C156.296223,126.919215 159.180363,138.497893 155.530034,150.607072" id="Fill-130" fill="#93500D" sketch:type="MSShapeGroup"></path>
                        <path d="M155.098966,150.31126 C151.996686,160.58731 144.524054,167.42901 138.404266,165.582383 C132.287178,163.735486 129.839856,153.908134 132.940247,143.628845 C136.039557,133.349015 143.511649,126.506775 149.632517,128.352862 C155.751495,130.19625 158.198006,140.027651 155.098966,150.31126" id="Fill-132" fill="#C66700" sketch:type="MSShapeGroup"></path>
                        <path d="M149.666776,148.504994 C147.16708,156.78377 142.188475,162.602806 138.538956,161.505629 C134.888088,160.405482 133.955865,152.798673 136.452321,144.516927 C138.949858,136.235721 143.932242,130.415065 147.582571,131.515752 C151.23263,132.613469 152.162153,140.219468 149.666776,148.504994" id="Fill-134" fill="#FFAA00" sketch:type="MSShapeGroup"></path>
                        <path d="M209.763322,118.161315 C206.109753,130.271843 197.305336,138.323301 190.102409,136.150544 C182.892463,133.979677 180.009133,122.399109 183.661891,110.289931 C187.31438,98.1807522 196.117447,90.1249751 203.324964,92.3007018 C210.52897,94.4731887 213.412301,106.053486 209.763322,118.161315" id="Fill-136" fill="#93500D" sketch:type="MSShapeGroup"></path>
                        <path d="M209.330957,117.865504 C206.230027,128.142093 198.757666,134.984334 192.637338,133.137706 C186.519979,131.290539 184.072388,121.462647 187.172508,111.183898 C190.272629,100.903259 197.74499,94.0607483 203.865588,95.9073757 C209.984836,97.7507634 212.431078,107.581895 209.330957,117.865504" id="Fill-138" fill="#C66700" sketch:type="MSShapeGroup"></path>
                        <path d="M203.898228,116.059264 C201.400422,124.338041 196.421547,130.157347 192.772028,129.059899 C189.121429,127.959752 188.187316,120.353753 190.685933,112.071467 C193.18266,103.789451 198.165044,97.969605 201.815913,99.0705621 C205.464892,100.16747 206.395495,107.773739 203.898228,116.059264" id="Fill-140" fill="#FFAA00" sketch:type="MSShapeGroup"></path>
                        <path d="M107.727357,128.429589 C111.562079,140.480993 108.858821,152.102597 101.686672,154.384963 C94.5139819,156.66787 85.5853764,148.745731 81.7509247,136.695137 C77.9162031,124.641843 80.6253999,113.01835 87.7983595,110.736523 C94.9713192,108.453886 103.892365,116.376836 107.727357,128.429589" id="Fill-142" fill="#93500D" sketch:type="MSShapeGroup"></path>
                        <path d="M107.20771,128.427186 C110.463335,138.65734 108.16288,148.527078 102.074139,150.464417 C95.9821587,152.402836 88.4053168,145.675874 85.150771,135.445721 C81.8943353,125.211787 84.1915506,115.346909 90.2840712,113.40795 C96.3722722,111.470611 103.952084,118.193523 107.20771,128.427186" id="Fill-144" fill="#C66700" sketch:type="MSShapeGroup"></path>
                        <path d="M101.703815,130.008564 C104.32689,138.251973 103.508866,145.869851 99.8782456,147.025073 C96.2451951,148.181105 91.1731791,142.437122 88.5501043,134.193443 C85.9275694,125.949493 86.7477527,118.331075 90.3808032,117.175043 C94.0111539,116.019821 99.0807401,121.764344 101.703815,130.008564" id="Fill-146" fill="#FFAA00" sketch:type="MSShapeGroup"></path>
                        <path d="M195.310439,155.943555 C182.87945,158.273977 171.672528,154.17117 170.285397,146.772242 C168.892868,139.375743 177.848741,131.482761 190.276219,129.145319 C202.707207,126.814627 213.91413,130.917704 215.30072,138.316362 C216.69379,145.712591 207.738457,153.605843 195.310439,155.943555" id="Fill-148" fill="#93500D" sketch:type="MSShapeGroup"></path>
                        <path d="M195.373991,155.422045 C184.819597,157.404739 175.307846,153.919365 174.131836,147.636512 C172.949886,141.356089 180.549676,134.658555 191.09867,132.673971 C201.657114,130.693706 211.169944,134.17962 212.348384,140.457613 C213.526284,146.738576 205.927844,153.43989 195.373991,155.422045" id="Fill-150" fill="#C66700" sketch:type="MSShapeGroup"></path>
                        <path d="M194.477054,149.770258 C185.975818,151.362569 178.512636,149.620692 177.807192,145.877222 C177.105797,142.132402 183.426176,137.800386 191.929302,136.203216 C200.433237,134.606585 207.89237,136.349272 208.597004,140.093552 C209.302988,143.837292 202.975859,148.171737 194.477054,149.770258" id="Fill-152" fill="#FFAA00" sketch:type="MSShapeGroup"></path>
                        <path d="M192.292229,249.106745 C194.889116,262.362236 190.597597,274.359105 182.711634,275.903631 C174.820542,277.452476 166.319036,267.959893 163.722689,254.704402 C161.126341,241.449721 165.41678,229.448802 173.307333,227.905086 C181.191676,226.361641 189.694532,235.853414 192.292229,249.106745" id="Fill-154" fill="#93500D" sketch:type="MSShapeGroup"></path>
                        <path d="M191.736702,249.04268 C193.939156,260.292529 190.299356,270.481376 183.600472,271.793724 C176.902938,273.103101 169.687322,265.047324 167.483788,253.795316 C165.277554,242.542767 168.917084,232.35446 175.616778,231.041302 C182.313502,229.727335 189.530468,237.787702 191.736702,249.04268" id="Fill-156" fill="#C66700" sketch:type="MSShapeGroup"></path>
                        <path d="M185.707895,250.049281 C187.480819,259.112604 185.685217,267.091708 181.69229,267.877065 C177.696394,268.659992 173.018811,261.945449 171.242377,252.880236 C169.466483,243.816103 171.264515,235.833489 175.260412,235.050833 C179.253608,234.264666 183.928221,240.981638 185.707895,250.049281" id="Fill-158" fill="#FFAA00" sketch:type="MSShapeGroup"></path>
                        <path d="M257.12756,236.798622 C246.555618,245.204557 233.926469,246.924296 228.924916,240.631724 C223.917694,234.344282 228.433022,222.422736 238.998755,214.013562 C249.570967,205.606817 262.198766,203.887888 267.201399,210.17911 C272.208081,216.467092 267.694103,228.388098 257.12756,236.798622" id="Fill-160" fill="#93500D" sketch:type="MSShapeGroup"></path>
                        <path d="M256.927185,236.275276 C247.953494,243.414759 237.233876,244.872893 232.986903,239.528202 C228.73669,234.188641 232.567632,224.072687 241.536463,216.933744 C250.515824,209.793451 261.235982,208.335587 265.482416,213.674608 C269.730199,219.016059 265.901686,229.135523 256.927185,236.275276" id="Fill-162" fill="#C66700" sketch:type="MSShapeGroup"></path>
                        <path d="M253.260388,231.386735 C246.029384,237.133688 238.113723,239.213844 235.57947,236.032461 C233.047917,232.847839 236.851591,225.602526 244.082866,219.850713 C251.31306,214.098631 259.22548,212.020635 261.759194,215.203368 C264.294257,218.38529 260.484913,225.634653 253.260388,231.386735" id="Fill-164" fill="#FFAA00" sketch:type="MSShapeGroup"></path>
                        <path d="M195.933972,189.532736 C205.570452,198.996701 208.819598,211.31727 203.187115,217.052614 C197.554901,222.787418 185.172508,219.76559 175.536569,210.302165 C165.900629,200.837929 162.655803,188.512231 168.288016,182.777697 C173.92077,177.042083 186.298303,180.06877 195.933972,189.532736" id="Fill-166" fill="#93500D" sketch:type="MSShapeGroup"></path>
                        <path d="M195.443077,189.790319 C203.622773,197.823418 206.377595,208.28926 201.596612,213.157175 C196.812389,218.02806 186.302272,215.45925 178.122576,207.42615 C169.940181,199.390351 167.185358,188.930179 171.968501,184.059294 C176.750024,179.191649 187.260412,181.75425 195.443077,189.790319" id="Fill-168" fill="#C66700" sketch:type="MSShapeGroup"></path>
                        <path d="M191.036468,194.030569 C197.627632,200.503754 200.657289,208.103544 197.806355,211.006043 C194.953802,213.911781 187.298667,211.020891 180.707233,204.547166 C174.116609,198.074251 171.086953,190.472302 173.940316,187.566833 C176.790979,184.664605 184.445034,187.557114 191.036468,194.030569" id="Fill-170" fill="#FFAA00" sketch:type="MSShapeGroup"></path>
                        <path d="M232.511072,234.288451 C221.93886,242.693575 209.31025,244.414125 204.308428,238.121823 C199.301746,231.83438 203.816804,219.912834 214.383076,211.50258 C224.955018,203.096916 237.582278,201.376367 242.584101,207.668669 C247.591863,213.955841 243.077614,225.877657 232.511072,234.288451" id="Fill-172" fill="#93500D" sketch:type="MSShapeGroup"></path>
                        <path d="M232.311237,233.763782 C223.337005,240.903805 212.617927,242.361668 208.371224,237.017248 C204.120471,231.677957 207.951953,221.561732 216.920785,214.422789 C225.900146,207.282497 236.619764,205.825713 240.865927,211.163924 C245.11371,216.505645 241.285468,226.625649 232.311237,233.763782" id="Fill-174" fill="#C66700" sketch:type="MSShapeGroup"></path>
                        <path d="M228.643629,228.876024 C221.412895,234.622437 213.497775,236.703402 210.962982,233.52175 C208.431698,230.337397 212.235373,223.092354 219.466107,217.339732 C226.697381,211.587919 234.609532,209.509924 237.142975,212.693196 C239.677768,215.874849 235.868694,223.124481 228.643629,228.876024" id="Fill-176" fill="#FFAA00" sketch:type="MSShapeGroup"></path>
                        <path id="Fill-178" fill="#662E12" sketch:type="MSShapeGroup" d="M259.400721,93.4918574 C259.400721,93.4918574 259.543268,93.7612923 259.792994,94.2591257 C259.592403,93.7518431 259.400721,93.4918574 259.400721,93.4918574"></path>
                        <path d="M259.793021,94.2590717 C260.925295,97.1162147 262.327004,107.967041 231.046918,126.139312 C185.803466,152.423246 193.815237,191.522342 197.74499,203.833461 C207.748365,194.031487 231.800417,168.64468 249.770208,134.990705 C231.643292,174.519061 206.787795,202.218742 199.740104,209.637919 C202.247359,210.070418 211.389245,206.775916 242.167719,186.433587 C288.528866,155.792801 263.319702,101.313242 259.793021,94.2590717" id="Fill-180" fill="#662E12" sketch:type="MSShapeGroup"></path>
                        <path d="M261.496967,97.9440653 C266.101117,107.489833 291.753849,164.952343 246.786852,194.671435 C219.064763,212.994623 203.264219,209.759785 199.739969,209.638027 C238.120662,170.33456 259.726472,129.280847 261.496967,97.9440653" id="Fill-182" fill="#664C32" sketch:type="MSShapeGroup"></path>
                        <path d="M167.841316,181.90279 L161.906731,185.982378 L87.5980653,77.8869108 L93.5323807,73.8070521 L167.841316,181.90279 Z" id="Fill-184" fill="#FF5B00" sketch:type="MSShapeGroup"></path>
                        <path d="M149.815749,210.500083 L142.995916,212.813497 L100.855284,88.5937862 L107.675387,86.2801024 L149.815749,210.500083 Z" id="Fill-186" fill="#FFAA00" sketch:type="MSShapeGroup"></path>
                    </g>
                    <g id="Page-1" transform="translate(287.000000, 551.000000)">
                        <g id="Group-3">
                            <mask id="mask-12" sketch:name="Clip 2" fill="white">
                                <use xlink:href="#path-11"></use>
                            </mask>
                            <g id="Clip-2"></g>
                            <path d="M135.963569,42.6883534 L94.0562575,33.1984471 L45.0488081,75.5680543 L7.98314818,188.251008 L3.03824939,203.28265 L0.623731174,210.624086 C-3.08485992,221.898732 10.1204599,236.623165 30.3220065,243.287677 L68.0705571,255.741953 C88.2727676,262.406465 107.840889,258.494534 111.54948,247.220554 L113.96433,239.87945 L118.908897,224.847475 L155.974557,112.163857 L135.963569,42.6883534 Z" id="Fill-1" fill="#B76629" sketch:type="MSShapeGroup" mask="url(#mask-12)"></path>
                        </g>
                        <path d="M149.024742,49.1427398 L118.973236,37.0827822 L71.9447417,180.053109 L58.306183,221.516715 L49.1062478,249.484726 L68.0704907,255.741953 C88.2727012,262.406133 107.840823,258.494534 111.549414,247.220554 L113.964264,239.87945 L118.908831,224.847475 L155.974823,112.163857 L149.024742,49.1427398 Z" id="Fill-4" fill="#8E4300" sketch:type="MSShapeGroup"></path>
                        <g id="Group-46" transform="translate(44.817814, 62.838254)" sketch:type="MSShapeGroup">
                            <path d="M87.2909919,68.8492153 C87.2909919,73.6525182 83.4031296,77.5461626 78.6069595,77.5461626 L78.3798826,77.5461626 C73.5837126,77.5461626 69.6958502,73.6525182 69.6958502,68.8492153 L69.6958502,39.3637775 C69.6958502,34.5604746 73.5837126,30.6668302 78.3798826,30.6668302 L78.6069595,30.6668302 C83.4031296,30.6668302 87.2909919,34.5604746 87.2909919,39.3637775 L87.2909919,68.8492153 Z" id="Fill-6" fill="#C1B091"></path>
                            <path d="M69.6958502,52.610414 L69.6958502,69.2815026 C69.6958502,74.0848055 73.9990243,77.8787067 78.7948623,77.8787067 L78.7988462,77.8787067 C83.5943522,77.8787067 87.2909919,74.0848055 87.2909919,69.2815026 L87.2909919,52.610414 L69.6958502,52.610414 Z" id="Fill-8" fill="#A88E7B"></path>
                            <path d="M78.798813,30.6668967 L78.6593798,30.6668967 L78.6593798,77.8787067 L78.798813,77.8787067 C83.594319,77.8787067 87.2909587,74.0848055 87.2909587,69.2815026 L87.2909587,39.6850173 C87.2909587,34.8823793 83.594319,30.6668967 78.798813,30.6668967" id="Fill-10" fill="#000000"></path>
                            <path d="M76.9994939,67.9043806 C76.9994939,69.1122715 76.0483603,70.0920828 74.8415992,70.0920828 C73.63517,70.0920828 72.6837045,69.1122715 72.6837045,67.9043806 L72.6837045,39.2611085 C72.6837045,38.0528851 73.63517,37.0727413 74.8415992,37.0727413 C76.0483603,37.0727413 76.9994939,38.0528851 76.9994939,39.2611085 L76.9994939,67.9043806 Z" id="Fill-12" fill="#FFFFFF"></path>
                            <path d="M44.045885,92.7288158 C41.1227676,96.536681 35.6705976,97.2508427 31.868387,94.323378 L31.7817393,94.2565501 C27.9795287,91.3290854 27.2667595,85.8688068 30.1902089,82.0609416 L48.1774235,58.6289223 C51.1008729,54.8207246 56.5527109,54.1075603 60.3552534,57.0346926 L60.4419012,57.1015205 C64.2437798,60.0286528 64.956549,65.4892638 62.0334316,69.2974615 L44.045885,92.7288158 Z" id="Fill-14" fill="#C1B091"></path>
                            <path d="M40.1865733,69.0388272 L30.1689619,82.088238 C27.2458445,85.8961032 28.015383,91.3563818 31.8172615,94.2838465 L31.8202494,94.2858413 C35.6224599,97.213306 41.1018526,96.5639774 44.025302,92.7564447 L54.0419174,79.7070339 L40.1865733,69.0388272 Z" id="Fill-16" fill="#A88E7B"></path>
                            <path d="M60.393498,57.0644493 L60.3171417,57.0052683 L31.7436275,94.2271258 L31.8203158,94.2859743 C35.6225263,97.213439 41.101919,96.5641104 44.0250364,92.7565777 L62.0368178,69.2926406 C64.9602672,65.4844429 64.1957085,59.991914 60.393498,57.0644493" id="Fill-18" fill="#000000"></path>
                            <path d="M36.4416964,85.4042692 C35.711,86.3558199 34.275834,86.4791691 33.3250324,85.7470535 C32.3748947,85.0152705 32.1249109,83.5949264 32.8556073,82.6427108 L50.2947166,59.9248533 C51.025413,58.9733026 52.4605789,58.8499534 53.4110486,59.5820689 C54.3618502,60.3135195 54.611834,61.734861 53.8811377,62.6867442 L36.4416964,85.4042692 Z" id="Fill-20" fill="#FFFFFF"></path>
                            <path d="M52.1007085,175.242027 C52.1007085,180.04533 48.2128462,183.938974 43.4166761,183.938974 L43.1895992,183.938974 C38.3934291,183.938974 34.5055668,180.04533 34.5055668,175.242027 L34.5055668,145.756589 C34.5055668,140.953286 38.3934291,137.059641 43.1895992,137.059641 L43.4166761,137.059641 C48.2128462,137.059641 52.1007085,140.953286 52.1007085,145.756589 L52.1007085,175.242027 Z" id="Fill-22" fill="#C1B091"></path>
                            <path d="M34.5055668,158.670748 L34.5055668,175.330865 C34.5055668,180.1345 38.6331215,183.93904 43.4289595,183.93904 L43.4329433,183.93904 C48.2284494,183.93904 51.7687247,180.1345 51.7687247,175.330865 L51.7687247,158.670748 L34.5055668,158.670748 Z" id="Fill-24" fill="#A88E7B"></path>
                            <path d="M43.4328105,137.059708 L43.4689968,137.059708 L43.4689968,183.93904 L43.4328105,183.93904 C48.2283166,183.93904 51.7685919,180.1345 51.7685919,175.330865 L51.7685919,145.734712 C51.7685919,140.931741 48.2283166,137.059708 43.4328105,137.059708" id="Fill-26" fill="#000000"></path>
                            <path d="M41.4772267,174.130953 C41.4772267,175.324547 40.5111538,176.292057 39.319332,176.292057 C38.1275101,176.292057 37.1614372,175.324547 37.1614372,174.130953 L37.1614372,145.537885 C37.1614372,144.344291 38.1275101,143.376781 39.319332,143.376781 C40.5111538,143.376781 41.4772267,144.344291 41.4772267,145.537885 L41.4772267,174.130953 Z" id="Fill-28" fill="#FFFFFF"></path>
                            <path d="M16.1239223,165.937842 C13.4926186,169.953838 8.10850526,171.072293 4.09880486,168.437408 L4.00750931,168.377562 C-0.00185910931,165.74168 -1.11898462,160.349227 1.51198704,156.334229 L17.7048291,131.624498 C20.3361328,127.608502 25.7199142,126.490048 29.7296146,129.1246 L29.8209101,129.185111 C33.8306105,131.82066 34.947736,137.212448 32.3164324,141.228112 L16.1239223,165.937842 Z" id="Fill-30" fill="#C1B091"></path>
                            <path d="M10.5109725,142.602075 L1.49329636,156.362988 C-1.13833927,160.378984 0.0355554656,165.76645 4.04525587,168.401667 L4.04824372,168.403662 C8.05794413,171.039211 13.473596,169.982265 16.1052316,165.966269 L25.1229077,152.205689 L10.5109725,142.602075 Z" id="Fill-32" fill="#A88E7B"></path>
                            <path d="M29.7702494,129.151663 L29.6892453,129.098467 L3.96714008,168.3501 L4.04814413,168.403629 C8.05817652,171.039178 13.4734964,169.982232 16.105132,165.966568 L32.319553,141.223258 C34.9511887,137.207261 33.7796178,131.78688 29.7702494,129.151663" id="Fill-34" fill="#000000"></path>
                            <path d="M7.99549798,159.201282 C7.33750607,160.205032 5.91561943,160.435439 4.91302834,159.776136 C3.91076923,159.117165 3.55554656,157.719762 4.21387045,156.715348 L19.9123887,132.758679 C20.5703806,131.754929 21.9922672,131.524522 22.9945263,132.18316 C23.9971174,132.842796 24.3523401,134.240864 23.6943482,135.244281 L7.99549798,159.201282 Z" id="Fill-36" fill="#FFFFFF"></path>
                            <path d="M53.4286437,38.2616145 C53.4286437,43.064585 49.5404494,46.9582294 44.7442794,46.9582294 L44.5178664,46.9582294 C39.7216964,46.9582294 35.833502,43.064585 35.833502,38.2616145 L35.833502,8.77551181 C35.833502,3.97254134 39.7216964,0.0788969191 44.5178664,0.0788969191 L44.7442794,0.0788969191 C49.5404494,0.0788969191 53.4286437,3.97254134 53.4286437,8.77551181 L53.4286437,38.2616145 Z" id="Fill-38" fill="#C1B091"></path>
                            <path d="M35.833502,22.0224807 L35.833502,38.3933421 C35.833502,43.1963126 39.6609433,46.9582959 44.4571134,46.9582959 L44.4607652,46.9582959 C49.2566032,46.9582959 53.4286437,43.1963126 53.4286437,38.3933421 L53.4286437,22.0224807 L35.833502,22.0224807 Z" id="Fill-40" fill="#A88E7B"></path>
                            <path d="M44.4608648,0.0789634146 L44.4651806,0.0789634146 L44.4651806,46.9582959 L44.4608648,46.9582959 C49.2567028,46.9582959 53.4287433,43.1963126 53.4287433,38.3933421 L53.4287433,8.79718935 C53.4287433,3.99355392 49.2567028,0.0789634146 44.4608648,0.0789634146" id="Fill-42" fill="#000000"></path>
                            <path d="M42.8051619,37.1933974 C42.8051619,38.3939738 41.5147409,39.3678005 40.3149514,39.3678005 C39.1164899,39.3678005 37.8254049,38.3939738 37.8254049,37.1933974 L37.8254049,8.53848858 C37.8254049,7.33691476 39.1164899,6.36342054 40.3149514,6.36342054 C41.5147409,6.36342054 42.8051619,7.33691476 42.8051619,8.53848858 L42.8051619,37.1933974 Z" id="Fill-44" fill="#FFFFFF"></path>
                        </g>
                        <path d="M28.9015474,218.111813 C27.1529887,223.427796 21.0903004,226.205646 15.2872235,224.29124 C9.48447854,222.376502 6.2566,216.533875 8.00549069,211.217891 L49.7471425,84.3198605 C51.4953692,79.0035447 57.5587215,76.2260273 63.3614664,78.140433 C69.1645433,80.0548386 72.3917579,85.8971339 70.6428672,91.2131172 L28.9015474,218.111813 Z" id="Fill-47" fill="#FFD797" sketch:type="MSShapeGroup"></path>
                        <path d="M74.7474154,222.209665 C72.3056745,229.632559 63.8799255,233.524208 55.7768648,230.851089 C47.674136,228.177969 43.2072939,220.032602 45.6490348,212.609376 L103.9351,35.4141439 C106.377172,27.990918 114.803253,24.0999334 122.905982,26.7727203 C131.008711,29.4461721 135.475221,37.5905418 133.033812,45.0141003 L74.7474154,222.209665 Z" id="Fill-49" fill="#563402" sketch:type="MSShapeGroup"></path>
                        <path d="M110.272272,225.435728 L13.7981101,193.607653 L38.8240453,117.526154 L135.298207,149.354561 L110.272272,225.435728 Z" id="Fill-51" fill="#FFFFFF" sketch:type="MSShapeGroup"></path>
                        <path d="M110.272272,225.435728 L60.2775028,208.94185 L85.30377,132.86035 L135.298207,149.354561 L110.272272,225.435728 Z" id="Fill-53" fill="#E5E5E5" sketch:type="MSShapeGroup"></path>
                        <path d="M113.951184,180.686679 L42.0836615,156.976376 L42.8558559,154.629417 L114.723046,178.339387 L113.951184,180.686679 Z" id="Fill-55" fill="#BABABA" sketch:type="MSShapeGroup"></path>
                        <path d="M80.117519,174.293934 L40.6682154,161.279101 L41.4404097,158.932474 L80.8893814,171.946975 L80.117519,174.293934 Z" id="Fill-57" fill="#BABABA" sketch:type="MSShapeGroup"></path>
                        <g id="Group-63" transform="translate(44.153846, 143.962773)" fill="#4A660C" sketch:type="MSShapeGroup">
                            <path d="M73.2714818,26.162225 L1.40395951,2.45225456 L2.17615385,0.104963158 L74.0433441,23.8149336 L73.2714818,26.162225 Z" id="Fill-59"></path>
                            <path d="M39.5663611,19.3785861 L0.117389474,6.36375302 L0.889251822,4.01712657 L40.3382235,17.0316272 L39.5663611,19.3785861 Z" id="Fill-61"></path>
                        </g>
                        <path d="M149.583338,51.3009512 L94.1207951,33.0023851 L104.413953,1.70926701 L159.87716,20.0078331 L149.583338,51.3009512 Z" id="Fill-64" fill="#8E856C" sketch:type="MSShapeGroup"></path>
                        <path d="M155.164483,48.1554145 L90.9133336,26.9576443 L99.7271717,0.16294724 L163.977989,21.3607175 L155.164483,48.1554145 Z" id="Fill-66" fill="#ADA690" sketch:type="MSShapeGroup"></path>
                        <path d="M158.783572,37.4180858 L94.4932478,16.2076814 L95.4400656,13.3290909 L159.730389,34.5404927 L158.783572,37.4180858 Z" id="Fill-68" fill="#E8E4D9" sketch:type="MSShapeGroup"></path>
                        <path id="Fill-70" fill="#4A660C" sketch:type="MSShapeGroup" d="M106.888428,179.898341 C106.888428,179.898341 106.868177,179.993097 106.828338,180.165321 C106.88212,180.001077 106.888428,179.898341 106.888428,179.898341"></path>
                        <path d="M106.828438,180.165221 C106.525005,181.091836 104.66656,184.024953 93.3595231,182.10822 C77.0060008,179.335025 71.0302923,190.503277 69.4918794,194.305823 C73.9168915,193.944752 84.9248105,192.633461 96.127604,188.069874 C83.6958065,194.035519 72.0225919,195.747446 68.801353,196.127135 C69.3242275,196.741553 72.2201223,197.794177 83.8445352,199.079868 C101.354357,201.016217 106.257426,182.602614 106.828438,180.165221" id="Fill-72" fill="#4A660C" sketch:type="MSShapeGroup"></path>
                        <path d="M106.496454,181.410715 C105.682762,184.674979 100.282713,203.90681 83.2997498,202.028312 C72.8293126,200.870625 69.6349644,196.872583 68.801353,196.127168 C86.1226081,194.329462 99.7107053,188.69829 106.496454,181.410715" id="Fill-74" fill="#5E771B" sketch:type="MSShapeGroup"></path>
                    </g>
                </g>
            </g>
        </g>
    </g>
</svg>